<?xml version="1.0" standalone="no"?><!DOCTYPE svg PUBLIC "-//W3C//DTD SVG 1.1//EN" "http://www.w3.org/Graphics/SVG/1.1/DTD/svg11.dtd"><svg t="1488115156764" class="icon" style="" viewBox="0 0 1024 1024" version="1.1" xmlns="http://www.w3.org/2000/svg" p-id="2974" xmlns:xlink="http://www.w3.org/1999/xlink" width="128" height="128"><defs><style type="text/css"></style></defs><path d="M216.527 917.48L95.15 776.616l83.737-95.763a357.093 357.093 0 0 1-26.861-100.663L32.307 545.05l33.744-182.856 126.915 5.259c16.829-31.033 38.068-59.336 63.216-84.247l-46.106-116.454 164.93-85.868 73.879 103.253a362.935 362.935 0 0 1 60.311-5.049c15.082 0 30.345 0.965 45.434 2.871l64.278-107.898 168.686 78.23-36.37 120.482c25.926 23.614 48.174 50.729 66.216 80.704l125.361-16.813 43.545 180.771-118.532 46.989c-2.267 31.927-8.726 63.242-19.232 93.213l92.91 85.621L830.213 892.23l-111.822-61.162-1.41 1.021-4.046-3.884-71.331-71.329 6.766-4.412c72.597-47.352 115.938-127.285 115.938-213.823 0-140.668-114.442-255.11-255.109-255.11-140.671 0-255.113 114.443-255.113 255.11 0 95.242 52.468 181.89 136.928 226.125l7.898 4.137-73.134 73.132-5.832-5.831 4.348 6.246-107.767 75.03zM112.508 776.682l106.233 123.285 98.063-68.274 0.321 0.461 60.017-60.016c-84.215-47.66-136.163-136.324-136.163-233.495 0-147.896 120.323-268.218 268.222-268.218 147.895 0 268.218 120.323 268.218 268.218 0 88.297-42.916 170.055-115.209 220.305l58.396 58.393 105.919 57.933 97.393-130.381-90.62-83.512 1.497-4.104c11.415-31.323 18.216-64.227 20.206-97.801l0.247-4.166 115.691-45.862-38.111-158.215-122.263 16.398-2.204-3.765c-18.435-31.488-41.641-59.783-68.97-84.102l-3.128-2.783 35.493-117.579L624.12 90.93l-62.662 105.185-4.307-0.596a350.715 350.715 0 0 0-47.955-3.318 349.695 349.695 0 0 0-62.076 5.554l-4.083 0.738-72.07-100.725-144.351 75.154 44.972 113.588-3.152 3.048c-26.522 25.644-48.671 55.14-65.833 87.672l-1.932 3.662-123.793-5.129-29.533 160.038 116.795 34.281 0.449 4.38a344.067 344.067 0 0 0 27.958 104.906l1.703 3.827-81.742 93.487z" p-id="2975" fill="#ffffff"></path><path d="M215.261 927.501L85.219 776.58l84.93-97.128a364.702 364.702 0 0 1-24.97-93.455L23.704 550.341l36.153-195.91 128.779 5.336a367.676 367.676 0 0 1 58.763-78.371l-46.787-118.173 176.704-91.999 74.96 104.763a370.952 370.952 0 0 1 56.919-4.4c13.754 0 27.685 0.788 41.485 2.346l65.246-109.522 180.729 83.815-36.895 122.219a368.175 368.175 0 0 1 61.528 74.949l127.219-17.063 46.654 193.677-120.231 47.664c-2.457 29.295-8.39 58.1-17.666 85.768l94.284 86.889-119.223 159.606-113.376-62.013-2.645 1.914-8.673-8.327-77.868-77.865 14.509-9.462c70.466-45.962 112.535-123.547 112.535-207.541 0-136.533-111.077-247.61-247.609-247.61-136.535 0-247.613 111.078-247.613 247.61 0 92.444 50.927 176.544 132.908 219.481l16.935 8.87-76.956 76.953 0.26 0.374-2.089 1.454-6.867 6.867-1.23-1.229-109.285 76.09z m-92.822-150.783l97.568 113.229 94.539-65.82 50.447-50.446c-38.761-23.788-71.13-56.791-93.99-95.941-24.549-42.042-37.524-90.141-37.524-139.096 0-152.031 123.688-275.718 275.722-275.718 152.031 0 275.718 123.687 275.718 275.718 0 44.493-10.841 88.72-31.35 127.898-19.104 36.492-46.591 68.604-79.818 93.341l51.397 51.395 99.264 54.292 89.448-119.746-89.322-82.315 3.21-8.802c11.168-30.646 17.818-62.836 19.766-95.674l0.529-8.935 114.079-45.223-35.002-145.31-120.506 16.163-4.727-8.073c-18.034-30.805-40.739-58.49-67.482-82.288l-6.707-5.968 34.996-115.933-135.592-62.886-61.745 103.646-9.233-1.278a343.243 343.243 0 0 0-46.926-3.248 342.18 342.18 0 0 0-60.741 5.434l-8.754 1.583-71.044-99.292-132.578 69.025 44.329 111.963-6.759 6.536c-25.953 25.093-47.624 53.954-64.413 85.781l-4.142 7.852-122.023-5.056L55.948 530.51l115.139 33.795 0.963 9.392a336.537 336.537 0 0 0 27.35 102.622l3.651 8.206-80.612 92.193z" p-id="2976" fill="#ffffff"></path><path d="M504.819 370.181l-0.97 149.399-0.086 13.195h179.243L428.518 817.962l101.538-208.667 9.169-18.844H385.59l119.229-220.27m13.45-52.384L363.589 603.56h154.68L375.387 897.188l336.886-377.522H516.958l1.311-201.869z" p-id="2977" fill="#ffffff"></path><path d="M344.988 942.519l161.29-331.459H351.001l174.962-323.234-1.456 224.34h204.511l-384.03 430.353z m53.19-359.568h153.037l-92.299 189.681 207.346-232.356H496.214l0.91-140.124-98.946 182.799z" p-id="2978" fill="#ffffff"></path></svg>