<?xml version="1.0" standalone="no"?><!DOCTYPE svg PUBLIC "-//W3C//DTD SVG 1.1//EN" "http://www.w3.org/Graphics/SVG/1.1/DTD/svg11.dtd"><svg t="1488115557118" class="icon" style="" viewBox="0 0 1024 1024" version="1.1" xmlns="http://www.w3.org/2000/svg" p-id="6488" xmlns:xlink="http://www.w3.org/1999/xlink" width="128" height="128"><defs><style type="text/css"></style></defs><path d="M896 64 128 64c-35.345 0-64 28.654-64 64l0 768c0 35.345 28.654 64 64 64l768 0c35.345 0 64-28.653 64-64L960 128C960 92.655 931.346 64 896 64zM928 896.006c0 17.67-14.331 31.994-31.994 31.994L127.995 928C110.324 928 96 913.669 96 896.006L96 127.995C96 110.324 110.332 96 127.995 96l768.011 0C913.676 96 928 110.332 928 127.995L928 896.006z" p-id="6489" fill="#ffffff"></path><path d="M707.401 542.915l0-112.84 26.28 0c2.885 0 7.266 0.206 13.14 0.618s10.357 0.618 13.449 0.618l0-58.739-52.869 0c0-25.557 0.618-42.56 1.854-51.01l-70.184 0c1.237 7.213 1.855 16.385 1.855 27.515l0 23.496-29.682 0 0 58.739c7.833-1.236 13.913-1.855 18.242-1.855 1.236 0 3.092 0.104 5.564 0.31 2.474 0.206 4.432 0.31 5.875 0.31l0 1.236-0.618 0 0 108.512c0 12.16 0.412 22.774 1.236 31.843s2.731 18.55 5.72 28.442c2.989 9.893 7.06 17.931 12.213 24.113 5.152 6.184 12.367 11.336 21.643 15.458s20.303 6.183 33.082 6.183c21.23 0 39.162-4.019 53.797-12.057l0-60.594c-9.894 6.802-21.127 10.202-33.7 10.202C716.367 583.414 707.401 569.914 707.401 542.915z" p-id="6490" fill="#ffffff"></path><path d="M548.174 235c-12.161 0-22.312 4.534-30.454 13.603s-12.213 19.683-12.213 31.843c0 11.954 4.123 22.414 12.367 31.379 8.245 8.965 18.345 13.448 30.3 13.448 11.749 0 21.643-4.483 29.682-13.448 8.038-8.965 12.058-19.425 12.058-31.379s-3.968-22.517-11.903-31.688S560.129 235 548.174 235z" p-id="6491" fill="#ffffff"></path><path d="M582.184 372.573l-68.638 0c0.824 7.007 1.236 20.198 1.236 39.571l0 188.273c0 18.344-0.412 32.152-1.236 41.427l68.638 0c-0.824-9.274-1.236-23.083-1.236-41.427l0-189.51C580.947 392.152 581.359 379.374 582.184 372.573z" p-id="6492" fill="#ffffff"></path><path d="M361.43 369.481c-28.856 0-53.075 9.532-72.657 28.597s-29.372 42.92-29.372 71.569c0 16.694 4.896 33.749 14.686 51.164 9.791 17.416 22.106 28.597 36.947 33.543l0 1.237c-12.985 5.771-19.479 19.889-19.479 42.354 0 17.519 6.905 30.503 20.715 38.953l0 1.236C274.757 650.5 256 673.687 256 707.693c0 15.251 3.35 28.391 10.048 39.417s15.716 19.477 27.053 25.35c11.336 5.874 23.291 10.1 35.864 12.676S354.938 789 369.159 789c74.821 0 112.232-31.327 112.232-93.982 0-11.747-2.319-21.898-6.957-30.451s-10.615-15.148-17.933-19.786c-7.316-4.637-15.407-8.501-24.271-11.593-8.862-3.092-17.726-5.72-26.589-7.884s-16.953-4.431-24.271-6.801-13.295-5.668-17.933-9.893c-4.638-4.226-6.956-9.532-6.956-15.922 0-8.038 2.01-14.015 6.028-17.931 4.02-3.916 10.151-6.698 18.396-8.347 25.559-4.741 45.861-16.334 60.908-34.78 15.047-18.445 22.57-40.756 22.57-66.931 0-8.45-1.649-17.106-4.947-25.969 8.863-2.062 17.005-4.328 24.426-6.802l0-62.449c-24.734 9.687-47.202 14.53-67.401 14.53C399.562 374.324 381.218 369.481 361.43 369.481zM367.923 672.141c34.01 0 51.015 10.305 51.015 30.915 0 21.641-15.562 32.461-46.687 32.461-35.452 0-53.179-10.408-53.179-31.225C319.072 682.857 335.355 672.141 367.923 672.141zM363.903 512c-25.559 0-38.338-13.912-38.338-41.735 0-29.885 12.779-44.827 38.338-44.827 12.161 0 21.333 4.225 27.517 12.675s9.275 18.962 9.275 31.534C400.695 497.882 388.432 512 363.903 512z" p-id="6493" fill="#ffffff"></path></svg>