<?xml version="1.0" standalone="no"?><!DOCTYPE svg PUBLIC "-//W3C//DTD SVG 1.1//EN" "http://www.w3.org/Graphics/SVG/1.1/DTD/svg11.dtd"><svg t="1488115484951" class="icon" style="" viewBox="0 0 1024 1024" version="1.1" xmlns="http://www.w3.org/2000/svg" p-id="5620" xmlns:xlink="http://www.w3.org/1999/xlink" width="128" height="128"><defs><style type="text/css"></style></defs><path d="M683.498867 919.957541 347.84644 919.957541c-48.330514 0-93.369688-26.005597-117.536952-67.861805l-167.826214-290.677475c-24.175291-41.860222-24.175291-93.867403 0-135.72361l167.826214-290.681489C254.476752 93.148927 299.515926 67.151357 347.84644 67.151357l335.652428 0c48.330514 0 93.369688 25.99757 117.536952 67.857791l167.826214 290.681489c24.175291 41.860222 24.175291 93.867403 0 135.72361l-167.826214 290.677475C776.868555 893.955958 731.825367 919.957541 683.498867 919.957541zM347.84644 101.393332c-36.136502 0-69.808512 19.442987-87.886797 50.738811l-167.826214 290.681489c-18.066244 31.299838-18.066244 70.185812 0 101.48565l167.826214 290.677475c18.078285 31.299838 51.750296 50.742825 87.886797 50.742825l335.652428 0c36.136502 0 69.808512-19.442987 87.886797-50.742825l167.826214-290.677475c18.066244-31.299838 18.066244-70.185812 0-101.48565l-167.826214-290.681489c-18.078285-31.29181-51.750296-50.738811-87.886797-50.738811L347.84644 101.393332z" p-id="5621" fill="#ffffff"></path><path d="M494.523789 555.919316 434.998706 590.382051 375.473624 555.919316 373.908231 486.993846 433.433313 452.535125 494.523789 485.428453 494.523789 555.919316Z" p-id="5622" fill="#ffffff"></path><path d="M768.656261 527.722168 757.69048 533.987755 746.7247 527.722168 746.7247 515.190994 757.69048 508.925407 768.656261 515.190994 768.656261 527.722168Z" p-id="5623" fill="#ffffff"></path><path d="M333.179909 485.428453 273.654826 452.535125 214.129744 486.993846 214.129744 577.850877 253.288659 554.353922 253.288659 510.4908 273.654826 497.959627 294.01698 508.925407 294.01698 555.919316 333.179909 577.850877 333.179909 577.850877 334.745302 577.850877 333.179909 485.428453Z" p-id="5624" fill="#ffffff"></path><path d="M655.871683 396.140829l-39.162929-23.496954 0 90.853017-20.362154-12.531174-59.525083 34.462735 0 68.92547 59.525083 34.462735 59.525083-34.462735L655.871683 396.140829 655.871683 396.140829zM596.342587 543.388142l-20.362154-10.965781 0-23.496954 20.362154-10.965781 20.362154 10.965781 0 23.496954L596.342587 543.388142 596.342587 543.388142z" p-id="5625" fill="#ffffff"></path><path d="M737.324313 533.987755 737.324313 508.925407 757.69048 497.959627 778.052634 508.925407 778.052634 530.856968 817.215563 507.360014 817.215563 485.428453 757.69048 452.535125 698.165398 486.993846 698.165398 555.919316 757.69048 590.382051 796.849395 566.885096 737.324313 533.987755Z" p-id="5626" fill="#ffffff"></path></svg>